<svg viewBox="0 0 575.18 595.28" xmlns="http://www.w3.org/2000/svg" xmlns:xlink="http://www.w3.org/1999/xlink" id="Layer_1" overflow="hidden"><defs></defs><path d="M276.53 240.41C276.53 199.52 230.71 174.41 197.85 174.41 175.85 174.41 162.12 185.19 162.12 202.54L162.12 213.61 152.87 213.61C136.63 213.61 119.45 230.86 119.45 247.16L119.45 371.32C119.433 377.754 124.636 382.983 131.07 383 131.077 383 131.083 383 131.09 383L161.25 383C161.43 383 161.6 383 161.78 383 167.984 382.722 172.875 377.62 172.89 371.41 172.89 371.41 172.89 251.52 172.89 224.47L198 224.47C211.859 224.487 223.089 235.721 223.1 249.58L223.1 371.32C223.083 377.754 228.286 382.983 234.72 383 234.733 383 234.747 383 234.76 383L264.94 383C271.366 382.994 276.574 377.786 276.58 371.36 276.59 317.19 276.53 240.41 276.53 240.41ZM133.08 372.19C131.504 372.19 130.226 370.916 130.22 369.34L130.22 247.16C130.22 236.94 142.71 224.38 152.87 224.38L162.12 224.38C162.12 313.87 162.12 359.66 162.12 369.38 162.109 370.953 160.833 372.225 159.26 372.23ZM265.81 369.36C265.81 370.923 264.543 372.19 262.98 372.19 262.973 372.19 262.967 372.19 262.96 372.19L236.74 372.19C235.168 372.185 233.895 370.912 233.89 369.34L233.89 249.48C233.89 229.67 217.83 213.61 198.02 213.61 198.013 213.61 198.007 213.61 198 213.61L172.89 213.61 172.89 202.47C172.89 196.01 176.13 185.18 197.89 185.18 239.97 185.18 265.8 217.35 265.8 240.41 265.76 240.41 265.82 315.37 265.81 369.36ZM444.08 213.36 413.93 213.36C407.504 213.366 402.296 218.574 402.29 225L402.29 372 377.16 372C363.305 371.983 352.077 360.755 352.06 346.9L352.06 225C352.054 218.574 346.846 213.366 340.42 213.36L310.24 213.36C303.812 213.366 298.601 218.572 298.59 225 298.59 278.13 298.64 355.92 298.64 355.92 298.64 396.81 344.47 421.92 377.33 421.92 399.33 421.92 413.05 411.14 413.05 393.79L413.05 382.74 422.3 382.74C438.54 382.74 455.72 365.5 455.72 349.2L455.72 225C455.693 218.588 450.492 213.401 444.08 213.39ZM402.28 393.85C402.28 400.31 399.04 411.14 377.33 411.14 335.25 411.14 309.41 378.98 309.41 355.92 309.41 355.92 309.36 281.33 309.36 226.92 309.365 225.352 310.641 224.084 312.21 224.09 312.213 224.09 312.217 224.09 312.22 224.09L338.43 224.09C340.01 224.09 341.29 225.37 341.29 226.95L341.29 346.87C341.29 366.68 357.35 382.74 377.16 382.74L402.29 382.74ZM445 349.2C445 359.41 432.51 371.97 422.35 371.97L413.1 371.97C413.1 309.47 413.1 239.42 413.1 226.97 413.105 225.407 414.377 224.144 415.94 224.15 415.943 224.15 415.947 224.15 415.95 224.15L442.1 224.15C443.685 224.133 444.983 225.405 445 226.99 445 226.993 445 226.997 445 227Z" stroke="none" stroke-width="1" stroke-linecap="butt" fill="#FFFFFF" fill-opacity="1"/></svg>